<svg width="30" height="22" viewBox="0 0 30 22" fill="none" xmlns="http://www.w3.org/2000/svg">
<path d="M0 0V2H17.8125V17H12.0413C11.6231 15.281 10.1737 14 8.4375 14C6.70125 14 5.25187 15.281 4.83375 17H3.75V12H1.875V19H4.83375C5.25187 20.719 6.70125 22 8.4375 22C10.1737 22 11.6231 20.719 12.0413 19H19.8337C20.2519 20.719 21.7013 22 23.4375 22C25.1737 22 26.6231 20.719 27.0413 19H30V10.844L29.9409 10.687L28.0659 4.687L27.8625 4H19.6875V0H0ZM0.9375 4V6H9.375V4H0.9375ZM19.6875 6H26.5134L28.125 11.125V17H27.0413C26.6231 15.281 25.1737 14 23.4375 14C21.7013 14 20.2519 15.281 19.8337 17H19.6875V6ZM1.875 8V10H7.5V8H1.875ZM8.4375 16C9.48469 16 10.3125 16.883 10.3125 18C10.3125 19.117 9.48469 20 8.4375 20C7.39031 20 6.5625 19.117 6.5625 18C6.5625 16.883 7.39031 16 8.4375 16ZM23.4375 16C24.4847 16 25.3125 16.883 25.3125 18C25.3125 19.117 24.4847 20 23.4375 20C22.3903 20 21.5625 19.117 21.5625 18C21.5625 16.883 22.3903 16 23.4375 16Z" fill="#FFF"/>
</svg>
