<svg width="13" height="13" viewBox="0 0 13 13" fill="none" xmlns="http://www.w3.org/2000/svg">
<path d="M6.6103 0.771606C6.81083 0.771606 7.00315 0.851831 7.14494 0.994631C7.28674 1.13743 7.3664 1.33111 7.3664 1.53306V6.10177H11.903C12.1035 6.10177 12.2958 6.18199 12.4376 6.32479C12.5794 6.46759 12.6591 6.66127 12.6591 6.86322C12.6591 7.06517 12.5794 7.25885 12.4376 7.40165C12.2958 7.54445 12.1035 7.62467 11.903 7.62467H7.3664V12.1934C7.3664 12.3953 7.28674 12.589 7.14494 12.7318C7.00315 12.8746 6.81083 12.9548 6.6103 12.9548C6.40977 12.9548 6.21746 12.8746 6.07566 12.7318C5.93386 12.589 5.8542 12.3953 5.8542 12.1934V7.62467H1.31762C1.11709 7.62467 0.924775 7.54445 0.782979 7.40165C0.641184 7.25885 0.561523 7.06517 0.561523 6.86322C0.561523 6.66127 0.641184 6.46759 0.782979 6.32479C0.924775 6.18199 1.11709 6.10177 1.31762 6.10177H5.8542V1.53306C5.8542 1.33111 5.93386 1.13743 6.07566 0.994631C6.21746 0.851831 6.40977 0.771606 6.6103 0.771606Z" fill="white"/>
</svg>
