<svg width="7" height="7" viewBox="0 0 7 7" fill="none" xmlns="http://www.w3.org/2000/svg">
<path d="M0.769864 0.125913C0.80849 0.0860005 0.854375 0.0543339 0.904891 0.0327276C0.955408 0.0111213 1.00956 0 1.06426 0C1.11895 0 1.17311 0.0111213 1.22362 0.0327276C1.27414 0.0543339 1.32003 0.0860005 1.35865 0.125913L3.55911 2.39485L5.75958 0.125913C5.79824 0.086065 5.84413 0.0544556 5.89464 0.0328899C5.94516 0.0113242 5.99929 0.000224394 6.05397 0.000224394C6.10864 0.000224394 6.16278 0.0113242 6.21329 0.0328899C6.26381 0.0544556 6.3097 0.086065 6.34836 0.125913C6.38702 0.165762 6.41769 0.213068 6.43861 0.265132C6.45953 0.317197 6.4703 0.372999 6.4703 0.429353C6.4703 0.485707 6.45953 0.541509 6.43861 0.593573C6.41769 0.645638 6.38702 0.692944 6.34836 0.732793L4.14707 3.00087L6.34836 5.26896C6.38702 5.30881 6.41769 5.35611 6.43861 5.40818C6.45953 5.46024 6.4703 5.51604 6.4703 5.5724C6.4703 5.62875 6.45953 5.68455 6.43861 5.73662C6.41769 5.78868 6.38702 5.83599 6.34836 5.87584C6.3097 5.91568 6.26381 5.94729 6.21329 5.96886C6.16278 5.99043 6.10864 6.00152 6.05397 6.00152C5.99929 6.00152 5.94516 5.99043 5.89464 5.96886C5.84413 5.94729 5.79824 5.91568 5.75958 5.87584L3.55911 3.6069L1.35865 5.87584C1.31999 5.91568 1.27409 5.94729 1.22358 5.96886C1.17307 5.99043 1.11893 6.00152 1.06426 6.00152C1.00958 6.00152 0.955445 5.99043 0.904933 5.96886C0.854421 5.94729 0.808525 5.91568 0.769864 5.87584C0.731204 5.83599 0.700537 5.78868 0.679614 5.73662C0.658692 5.68455 0.647923 5.62875 0.647923 5.5724C0.647923 5.51604 0.658692 5.46024 0.679614 5.40818C0.700537 5.35611 0.731204 5.30881 0.769864 5.26896L2.97116 3.00087L0.769864 0.732793C0.731142 0.692981 0.700419 0.645686 0.679457 0.593616C0.658495 0.541547 0.647705 0.485727 0.647705 0.429353C0.647705 0.372979 0.658495 0.317159 0.679457 0.26509C0.700419 0.21302 0.731142 0.165725 0.769864 0.125913Z" fill="white"/>
</svg>
