<svg width="36" height="36" viewBox="0 0 36 36" fill="none" xmlns="http://www.w3.org/2000/svg">
<path d="M7.5544 7.61719C6.61897 7.61719 5.72185 7.98879 5.06039 8.65024C4.39894 9.31169 4.02734 10.2088 4.02734 11.1442V12.9078H32.2438V11.1442C32.2438 10.2088 31.8722 9.31169 31.2108 8.65024C30.5493 7.98879 29.6522 7.61719 28.7167 7.61719H7.5544Z" fill="black"/>
<path fill-rule="evenodd" clip-rule="evenodd" d="M32.2438 16.4336H4.02734V25.2512C4.02734 26.1867 4.39894 27.0838 5.06039 27.7452C5.72185 28.4067 6.61897 28.7783 7.5544 28.7783H28.7167C29.6522 28.7783 30.5493 28.4067 31.2108 27.7452C31.8722 27.0838 32.2438 26.1867 32.2438 25.2512V16.4336ZM7.5544 23.4877C7.5544 23.02 7.7402 22.5714 8.07093 22.2407C8.40165 21.91 8.85021 21.7242 9.31793 21.7242H11.0815C11.5492 21.7242 11.9977 21.91 12.3285 22.2407C12.6592 22.5714 12.845 23.02 12.845 23.4877C12.845 23.9554 12.6592 24.404 12.3285 24.7347C11.9977 25.0654 11.5492 25.2512 11.0815 25.2512H9.31793C8.85021 25.2512 8.40165 25.0654 8.07093 24.7347C7.7402 24.404 7.5544 23.9554 7.5544 23.4877ZM16.372 21.7242C15.9043 21.7242 15.4558 21.91 15.125 22.2407C14.7943 22.5714 14.6085 23.02 14.6085 23.4877C14.6085 23.9554 14.7943 24.404 15.125 24.7347C15.4558 25.0654 15.9043 25.2512 16.372 25.2512H18.1356C18.6033 25.2512 19.0519 25.0654 19.3826 24.7347C19.7133 24.404 19.8991 23.9554 19.8991 23.4877C19.8991 23.02 19.7133 22.5714 19.3826 22.2407C19.0519 21.91 18.6033 21.7242 18.1356 21.7242H16.372Z" fill="black"/>
</svg>
