<svg width="29" height="30" viewBox="0 0 29 30" fill="none" xmlns="http://www.w3.org/2000/svg">
<path d="M12.125 22.5146V13.7109L2.75 9.02344V21.9141L10.7188 25.9131L10.2646 27.7734L0.875 23.0859V6.91406L13.0625 0.834961L25.25 6.91406V10.8691C24.5664 10.9766 23.9414 11.1963 23.375 11.5283V9.02344L14 13.7109V20.6396L12.125 22.5146ZM10.0449 4.42383L18.5996 9.31641L22.2178 7.5L13.0625 2.91504L10.0449 4.42383ZM13.0625 12.085L16.5781 10.3271L8.02344 5.43457L3.90723 7.5L13.0625 12.085ZM26.0703 13.125C26.4805 13.125 26.8613 13.1982 27.2129 13.3447C27.5645 13.4912 27.877 13.6914 28.1504 13.9453C28.4238 14.1992 28.6289 14.5068 28.7656 14.8682C28.9023 15.2295 28.9805 15.6152 29 16.0254C29 16.4062 28.9268 16.7773 28.7803 17.1387C28.6338 17.5 28.4238 17.8174 28.1504 18.0908L17.6475 28.5938L12.125 29.9707L13.502 24.4482L24.0049 13.96C24.2881 13.6768 24.6055 13.4668 24.957 13.3301C25.3086 13.1934 25.6797 13.125 26.0703 13.125ZM26.8174 16.7725C27.0225 16.5674 27.125 16.3184 27.125 16.0254C27.125 15.7227 27.0273 15.4785 26.832 15.293C26.6367 15.1074 26.3828 15.0098 26.0703 15C25.9336 15 25.8018 15.0195 25.6748 15.0586C25.5479 15.0977 25.4355 15.1709 25.3379 15.2783L15.2012 25.415L14.7031 27.3926L16.6807 26.8945L26.8174 16.7725Z" fill="#FF9728"/>
</svg>
