<svg width="11" height="8" viewBox="0 0 11 8" fill="none" xmlns="http://www.w3.org/2000/svg">
<path d="M5.38743 7.7845C5.43193 7.85112 5.49148 7.90559 5.56094 7.94322C5.6304 7.98086 5.7077 8.00052 5.78617 8.00052C5.86465 8.00052 5.94194 7.98086 6.01141 7.94322C6.08087 7.90559 6.14042 7.85112 6.18492 7.7845L10.5508 1.2845C10.6013 1.20953 10.6309 1.12172 10.6364 1.0306C10.642 0.93949 10.6231 0.848562 10.582 0.767697C10.5409 0.686832 10.4791 0.619124 10.4033 0.571929C10.3275 0.524734 10.2406 0.499857 10.152 0.500001H1.42034C1.33197 0.500377 1.24538 0.525574 1.16987 0.572882C1.09436 0.62019 1.0328 0.68782 0.991789 0.768497C0.950782 0.849175 0.931888 0.939848 0.937138 1.03077C0.942389 1.12168 0.971586 1.20941 1.02159 1.2845L5.38743 7.7845Z" fill="#C0BDB7"/>
</svg>
